{
  "accessors": [
    {
      "bufferView": 1,
      "componentType": 5126,
      "count": 32691,
      "max": [
        1.5590929985046387,
        1.2867262363433838,
        4.6148238182067871
      ],
      "min": [
        -0.67859131097793579,
        -0.75766599178314209,
        2.4702162742614746
      ],
      "type": "VEC3"
    },
    {
      "bufferView": 1,
      "byteOffset": 392292,
      "componentType": 5126,
      "count": 32691,
      "max": [
        0.99998575448989868,
        0.99982452392578125,
        0.99998992681503296
      ],
      "min": [
        -0.999950110912323,
        -0.9999079704284668,
        -0.99979537725448608
      ],
      "type": "VEC3"
    },
    {
      "bufferView": 2,
      "componentType": 5126,
      "count": 32691,
      "max": [
        0.99988573789596558,
        0.99912357330322266,
        0.99938517808914185,
        1
      ],
      "min": [
        -0.99990755319595337,
        -0.99977004528045654,
        -0.99998891353607178,
        -1
      ],
      "type": "VEC4"
    },
    {
      "bufferView": 2,
      "byteOffset": 523056,
      "componentType": 5126,
      "count": 32691,
      "max": [
        0.9686274528503418,
        0.93725490570068359,
        0.92941176891326904,
        1
      ],
      "min": [
        0.16078431904315948,
        0.078431375324726105,
        0,
        1
      ],
      "type": "VEC4"
    },
    {
      "bufferView": 0,
      "componentType": 5125,
      "count": 163167,
      "max": [
        32690
      ],
      "min": [
        0
      ],
      "type": "SCALAR"
    }
  ],
  "asset": {
    "extras": {
      "author": "burnedsap (https://sketchfab.com/burnedsap)",
      "license": "CC-BY-4.0 (http://creativecommons.org/licenses/by/4.0/)",
      "source": "https://sketchfab.com/models/3eb2c27802fe4ab898d19232f20286bc",
      "title": "Shell One Nostalgia"
    },
    "generator": "Sketchfab-3.19.8",
    "version": "2.0"
  },
  "bufferViews": [
    {
      "buffer": 0,
      "byteLength": 652668,
      "byteOffset": 0,
      "name": "floatBufferViews",
      "target": 34963
    },
    {
      "buffer": 0,
      "byteLength": 784584,
      "byteOffset": 652668,
      "byteStride": 12,
      "name": "floatBufferViews",
      "target": 34962
    },
    {
      "buffer": 0,
      "byteLength": 1046112,
      "byteOffset": 1437252,
      "byteStride": 16,
      "name": "floatBufferViews",
      "target": 34962
    }
  ],
  "buffers": [
    {
      "byteLength": 2483364,
      "uri": "scene.bin"
    }
  ],
  "materials": [
    {
      "doubleSided": true,
      "emissiveFactor": [
        0,
        0,
        0
      ],
      "name": "material0",
      "pbrMetallicRoughness": {
        "baseColorFactor": [
          0.80000000000000004,
          0.80000000000000004,
          0.80000000000000004,
          1
        ],
        "metallicFactor": 0,
        "roughnessFactor": 0.95770514949999996
      }
    }
  ],
  "meshes": [
    {
      "name": "Model_material0_0",
      "primitives": [
        {
          "attributes": {
            "COLOR_0": 3,
            "NORMAL": 1,
            "POSITION": 0,
            "TANGENT": 2
          },
          "indices": 4,
          "material": 0,
          "mode": 4
        }
      ]
    }
  ],
  "nodes": [
    {
      "children": [
        1
      ],
      "name": "RootNode (gltf orientation matrix)",
      "rotation": [
        -0.70710678118654746,
        -0,
        -0,
        0.70710678118654757
      ]
    },
    {
      "children": [
        2
      ],
      "matrix": [
        0,
        -1,
        0,
        0,
        -1,
        0,
        0,
        0,
        0,
        0,
        -1,
        0,
        -3.1022720336914062,
        -3.1022720336914062,
        0.52906012535095215,
        1
      ],
      "name": "RootNode (model correction matrix)"
    },
    {
      "children": [
        3
      ],
      "matrix": [
        1,
        0,
        0,
        0,
        0,
        0,
        1,
        0,
        0,
        -1,
        0,
        0,
        0,
        0,
        0,
        1
      ],
      "name": "d37cc309b0de452d8de3cef2c8c588da.fbx"
    },
    {
      "children": [
        4
      ],
      "name": "RootNode"
    },
    {
      "children": [
        5
      ],
      "name": "Model"
    },
    {
      "mesh": 0,
      "name": "Model_material0_0"
    }
  ],
  "scene": 0,
  "scenes": [
    {
      "name": "OSG_Scene",
      "nodes": [
        0
      ]
    }
  ]
}

